<svg xmlns="http://www.w3.org/2000/svg" viewBox="0 0 512 512" role="img" aria-label="Kodi K compass logo">
  <defs>
    <linearGradient id="bg" x1="76" y1="56" x2="438" y2="458" gradientUnits="userSpaceOnUse">
      <stop offset="0" stop-color="#06749e"/>
      <stop offset="1" stop-color="#003d63"/>
    </linearGradient>
    <linearGradient id="accent" x1="309" y1="153" x2="386" y2="244" gradientUnits="userSpaceOnUse">
      <stop offset="0" stop-color="#70f8e7"/>
      <stop offset="1" stop-color="#13b4cb"/>
    </linearGradient>
  </defs>
  <rect x="32" y="32" width="448" height="448" rx="92" fill="url(#bg)"/>
  <circle cx="256" cy="256" r="150" fill="none" stroke="#ffffff" stroke-width="16"/>
  <path d="M256 105v31M256 376v31M105 256h31M376 256h31" fill="none" stroke="#ffffff" stroke-width="16" stroke-linecap="round"/>
  <path fill="#ffffff" d="M178 161c0-8 6-14 14-14h25c8 0 14 6 14 14v73l76-82c5-6 14-7 21-2l22 15c8 6 9 17 2 24l-63 65 72 82c7 8 1 21-10 21h-30c-6 0-11-3-15-7l-75-86v79c0 8-6 14-14 14h-25c-8 0-14-6-14-14V161z"/>
  <path fill="url(#accent)" d="M313 162c-7-3-13 6-8 12l34 22 16 39c3 7 13 6 15-2l26-82c2-7-5-13-12-10l-71 21z"/>
</svg>
