<svg xmlns="http://www.w3.org/2000/svg" viewBox="0 0 512 512" role="img" aria-label="Kodi logo option A">
  <defs>
    <linearGradient id="bg" x1="82" y1="58" x2="430" y2="454" gradientUnits="userSpaceOnUse">
      <stop offset="0" stop-color="#086996"/>
      <stop offset="1" stop-color="#004c74"/>
    </linearGradient>
    <linearGradient id="arrow" x1="311" y1="169" x2="388" y2="247" gradientUnits="userSpaceOnUse">
      <stop offset="0" stop-color="#28d9c9"/>
      <stop offset="1" stop-color="#15aebd"/>
    </linearGradient>
    <filter id="softShadow" x="-20%" y="-20%" width="140%" height="140%">
      <feDropShadow dx="0" dy="10" stdDeviation="12" flood-color="#00314a" flood-opacity=".25"/>
    </filter>
  </defs>
  <rect x="32" y="32" width="448" height="448" rx="84" fill="url(#bg)" filter="url(#softShadow)"/>
  <circle cx="256" cy="256" r="150" fill="none" stroke="#f7fbff" stroke-width="18"/>
  <path d="M256 104v38M256 370v38M104 256h38M370 256h38" fill="none" stroke="#f7fbff" stroke-width="18" stroke-linecap="round"/>
  <path fill="#f7fbff" d="M180 169c0-8 6-14 14-14h21c8 0 14 6 14 14v68l77-76c5-5 13-6 19-2l21 14c8 5 9 16 2 23l-67 66 72 78c7 8 2 21-9 21h-27c-6 0-11-2-15-7l-73-80v73c0 8-6 14-14 14h-21c-8 0-14-6-14-14V169z"/>
  <path fill="url(#arrow)" d="M314 178c-7-2-11 7-6 12l36 18 17 38c3 7 13 5 14-2l24-86c2-7-5-13-12-9l-73 29z"/>
  <path d="M426 403v18M417 412h18" stroke="#6ee7dc" stroke-width="5" stroke-linecap="round"/>
</svg>
