<svg xmlns="http://www.w3.org/2000/svg" viewBox="0 0 512 512" role="img" aria-label="Kodi compass bubble logo">
  <defs>
    <linearGradient id="bg" x1="76" y1="56" x2="438" y2="456" gradientUnits="userSpaceOnUse">
      <stop offset="0" stop-color="#05739d"/>
      <stop offset="1" stop-color="#003f63"/>
    </linearGradient>
    <linearGradient id="needle" x1="219" y1="145" x2="314" y2="360" gradientUnits="userSpaceOnUse">
      <stop offset="0" stop-color="#75f9e8"/>
      <stop offset="1" stop-color="#13b2ca"/>
    </linearGradient>
  </defs>
  <rect x="32" y="32" width="448" height="448" rx="92" fill="url(#bg)"/>
  <path d="M130 219c0-70 57-127 127-127s127 57 127 127-57 127-127 127h-29l-62 56c-10 9-26 2-26-12v-77c-7-14-10-30-10-94z" fill="#ffffff"/>
  <circle cx="257" cy="219" r="88" fill="none" stroke="#075e86" stroke-width="17" opacity=".16"/>
  <path d="M284 145l-27 86-29 63c-3 7 5 14 12 10l61-32 81-30c7-3 7-13 0-15l-63-22-24-60c-3-7-14-7-11 0z" fill="url(#needle)"/>
  <circle cx="257" cy="219" r="19" fill="#075e86"/>
  <path d="M185 220h30M299 220h30M257 148v30M257 260v30" stroke="#075e86" stroke-width="12" stroke-linecap="round"/>
</svg>
