<svg xmlns="http://www.w3.org/2000/svg" viewBox="0 0 512 512" role="img" aria-label="Kodi chat route logo">
  <defs>
    <linearGradient id="bg" x1="74" y1="58" x2="436" y2="456" gradientUnits="userSpaceOnUse">
      <stop offset="0" stop-color="#087ba4"/>
      <stop offset="1" stop-color="#004260"/>
    </linearGradient>
    <linearGradient id="line" x1="149" y1="199" x2="361" y2="327" gradientUnits="userSpaceOnUse">
      <stop offset="0" stop-color="#6ff7e6"/>
      <stop offset="1" stop-color="#15b4cb"/>
    </linearGradient>
  </defs>
  <rect x="32" y="32" width="448" height="448" rx="84" fill="url(#bg)"/>
  <path d="M127 164c0-35 28-63 63-63h131c35 0 63 28 63 63v92c0 35-28 63-63 63h-64l-73 65c-11 10-29 2-29-13v-57c-17-7-28-24-28-44V164z" fill="#ffffff"/>
  <path d="M171 250c35-43 72 37 113-8 17-18 24-42 55-56" fill="none" stroke="url(#line)" stroke-width="27" stroke-linecap="round"/>
  <circle cx="171" cy="250" r="22" fill="#065b80"/>
  <circle cx="339" cy="186" r="25" fill="#16b7cc"/>
  <path d="M330 186h18M339 177v18" stroke="#ffffff" stroke-width="8" stroke-linecap="round"/>
</svg>
