<svg xmlns="http://www.w3.org/2000/svg" viewBox="0 0 512 512" role="img" aria-label="Kodi premium K outline logo E">
  <defs>
    <linearGradient id="bg" x1="76" y1="56" x2="438" y2="458" gradientUnits="userSpaceOnUse">
      <stop offset="0" stop-color="#0676a2"/>
      <stop offset="1" stop-color="#003d63"/>
    </linearGradient>
    <linearGradient id="accent" x1="237" y1="142" x2="386" y2="292" gradientUnits="userSpaceOnUse">
      <stop offset="0" stop-color="#ffffff"/>
      <stop offset="1" stop-color="#4feede"/>
    </linearGradient>
  </defs>
  <rect x="32" y="32" width="448" height="448" rx="94" fill="url(#bg)"/>
  <path d="M160 133c0-11 9-20 20-20h38c11 0 20 9 20 20v101l98-109c8-8 20-9 29-2l28 22c10 8 10 22 1 31l-87 88 94 108c12 14 2 35-16 35h-45c-7 0-13-3-17-8l-85-104v90c0 11-9 20-20 20h-38c-11 0-20-9-20-20V133z" fill="none" stroke="#ffffff" stroke-width="26" stroke-linejoin="round"/>
  <path d="M238 258l98-109c8-8 20-9 29-2l28 22c10 8 10 22 1 31l-87 88z" fill="url(#accent)"/>
</svg>
