<svg xmlns="http://www.w3.org/2000/svg" viewBox="0 0 512 512" role="img" aria-label="Kodi premium K compass logo C">
  <defs>
    <linearGradient id="bg" x1="76" y1="56" x2="438" y2="458" gradientUnits="userSpaceOnUse">
      <stop offset="0" stop-color="#0677a0"/>
      <stop offset="1" stop-color="#003d63"/>
    </linearGradient>
    <linearGradient id="accent" x1="232" y1="142" x2="384" y2="289" gradientUnits="userSpaceOnUse">
      <stop offset="0" stop-color="#ffffff"/>
      <stop offset="1" stop-color="#55efe0"/>
    </linearGradient>
  </defs>
  <rect x="32" y="32" width="448" height="448" rx="94" fill="url(#bg)"/>
  <circle cx="256" cy="256" r="154" fill="none" stroke="#ffffff" stroke-width="12" opacity=".5"/>
  <path d="M256 109v24M256 379v24M109 256h24M379 256h24" stroke="#ffffff" stroke-width="12" stroke-linecap="round" opacity=".8"/>
  <path fill="#fff" d="M164 136c0-10 8-18 18-18h34c10 0 18 8 18 18v100l100-108c7-8 19-9 27-2l25 20c8 7 9 19 1 27l-88 91 96 107c10 11 2 28-13 28h-41c-6 0-12-3-16-8l-91-108v99c0 10-8 18-18 18h-34c-10 0-18-8-18-18V136z"/>
  <path fill="url(#accent)" d="M234 258l100-108c7-8 19-9 27-2l25 20c8 7 9 19 1 27l-88 91z"/>
</svg>
