<svg xmlns="http://www.w3.org/2000/svg" viewBox="0 0 512 512" role="img" aria-label="Kodi chat pin logo">
  <defs>
    <linearGradient id="bg" x1="70" y1="52" x2="438" y2="456" gradientUnits="userSpaceOnUse">
      <stop offset="0" stop-color="#056f9f"/>
      <stop offset="1" stop-color="#003f66"/>
    </linearGradient>
    <linearGradient id="pin" x1="160" y1="119" x2="360" y2="380" gradientUnits="userSpaceOnUse">
      <stop offset="0" stop-color="#5df3df"/>
      <stop offset="1" stop-color="#10aeca"/>
    </linearGradient>
  </defs>
  <rect x="32" y="32" width="448" height="448" rx="90" fill="url(#bg)"/>
  <path d="M141 158c0-37 30-67 67-67h96c37 0 67 30 67 67v84c0 37-30 67-67 67h-61l-74 64c-11 9-28 1-28-13v-59c-39-4-70-37-70-78v-65z" fill="#f8fdff"/>
  <path d="M256 155c-54 0-98 43-98 96 0 75 98 158 98 158s98-83 98-158c0-53-44-96-98-96z" fill="url(#pin)"/>
  <circle cx="256" cy="250" r="38" fill="#ffffff"/>
  <circle cx="256" cy="250" r="18" fill="#075f88"/>
  <path d="M203 198h106" stroke="#075f88" stroke-width="18" stroke-linecap="round" opacity=".18"/>
  <path d="M206 296h100" stroke="#ffffff" stroke-width="18" stroke-linecap="round" opacity=".7"/>
</svg>
